# Blender v2.73 (sub 0) OBJ File: ''
# www.blender.org
o Cube
v 5.852849 -3.776695 -5.404988
v 5.852849 -3.776695 5.404988
v -5.852850 -3.776695 5.404987
v -5.852848 -3.776695 -5.404990
v 5.852852 3.776695 -5.404985
v 5.852846 3.776695 5.404992
v -5.852851 3.776695 5.404986
v -5.852849 3.776695 -5.404988
vt 0.000000 0.000000
vt 1.000000 0.000000
vt 1.000000 1.000000
vt 0.000000 1.000000
vn 0.000000 -1.000000 0.000000
vn 0.000000 1.000000 -0.000000
vn 1.000000 0.000000 0.000000
vn -0.000000 0.000000 1.000000
vn -1.000000 -0.000000 -0.000000
vn 0.000000 0.000000 -1.000000
s off
f 1/1/1 2/2/1 3/3/1
f 8/2/2 7/3/2 6/4/2
f 5/2/3 6/3/3 2/4/3
f 6/2/4 7/3/4 3/4/4
f 7/2/5 8/3/5 4/4/5
f 1/2/6 4/3/6 8/4/6
f 4/4/1 1/1/1 3/3/1
f 5/1/2 8/2/2 6/4/2
f 1/1/3 5/2/3 2/4/3
f 2/1/4 6/2/4 3/4/4
f 3/1/5 7/2/5 4/4/5
f 5/1/6 1/2/6 8/4/6
